<svg xmlns="http://www.w3.org/2000/svg" viewBox="0 0 1600 1000"><circle cx="1023.1" cy="25.0" r="0.63" fill="#ffffff" opacity="0.35"/><circle cx="1082.7" cy="892.2" r="0.52" fill="#ffffff" opacity="0.27"/><circle cx="349.8" cy="505.4" r="0.51" fill="#cfe0ff" opacity="0.75"/><circle cx="671.2" cy="449.2" r="0.79" fill="#ffffff" opacity="0.25"/><circle cx="1117.0" cy="340.3" r="0.53" fill="#ffffff" opacity="0.78"/><circle cx="148.4" cy="96.7" r="1.41" fill="#ffffff" opacity="0.44"/><circle cx="1167.6" cy="536.2" r="0.67" fill="#cfe0ff" opacity="0.46"/><circle cx="1416.7" cy="361.6" r="0.65" fill="#ffffff" opacity="0.28"/><circle cx="1236.9" cy="985.2" r="1.34" fill="#ffffff" opacity="0.32"/><circle cx="725.5" cy="834.1" r="0.57" fill="#ffffff" opacity="0.4"/><circle cx="1122.9" cy="683.5" r="0.52" fill="#ffffff" opacity="0.37"/><circle cx="261.4" cy="379.5" r="1.29" fill="#ffffff" opacity="0.4"/><circle cx="1348.6" cy="776.0" r="0.68" fill="#ffe9cf" opacity="0.81"/><circle cx="428.4" cy="211.0" r="1.15" fill="#ffe9cf" opacity="0.47"/><circle cx="633.0" cy="914.5" r="0.69" fill="#cfe0ff" opacity="0.35"/><circle cx="862.4" cy="747.0" r="0.93" fill="#ffffff" opacity="0.53"/><circle cx="1595.7" cy="138.3" r="0.67" fill="#ffffff" opacity="0.28"/><circle cx="244.5" cy="160.0" r="1.16" fill="#ffe9cf" opacity="0.29"/><circle cx="953.4" cy="468.0" r="0.83" fill="#ffffff" opacity="0.85"/><circle cx="1088.5" cy="114.6" r="1.1" fill="#ffffff" opacity="0.79"/><circle cx="178.5" cy="434.8" r="0.64" fill="#ffffff" opacity="0.76"/><circle cx="1555.0" cy="762.0" r="1.17" fill="#ffffff" opacity="0.86"/><circle cx="1346.7" cy="507.7" r="0.52" fill="#cfe0ff" opacity="0.78"/><circle cx="1525.6" cy="922.4" r="0.52" fill="#ffffff" opacity="0.59"/><circle cx="1486.6" cy="878.7" r="1.68" fill="#ffffff" opacity="0.42"/><circle cx="1404.8" cy="946.9" r="0.55" fill="#cfe0ff" opacity="0.82"/><circle cx="1225.3" cy="128.4" r="0.94" fill="#cfe0ff" opacity="0.37"/><circle cx="1395.9" cy="423.1" r="0.7" fill="#ffffff" opacity="0.78"/><circle cx="1140.7" cy="399.0" r="1.27" fill="#cfe0ff" opacity="0.56"/><circle cx="722.4" cy="247.9" r="0.47" fill="#ffffff" opacity="0.66"/><circle cx="941.5" cy="7.2" r="1.26" fill="#ffffff" opacity="0.41"/><circle cx="1375.4" cy="70.9" r="0.55" fill="#cfe0ff" opacity="0.59"/><circle cx="211.7" cy="935.5" r="1.03" fill="#ffe9cf" opacity="0.42"/><circle cx="1292.0" cy="190.4" r="0.53" fill="#ffe9cf" opacity="0.5"/><circle cx="747.2" cy="729.1" r="1.27" fill="#ffffff" opacity="0.7"/><circle cx="644.2" cy="339.3" r="1.27" fill="#cfe0ff" opacity="0.38"/><circle cx="717.8" cy="421.9" r="0.69" fill="#ffffff" opacity="0.86"/><circle cx="709.0" cy="861.3" r="0.84" fill="#cfe0ff" opacity="0.71"/><circle cx="1337.6" cy="969.0" r="1.71" fill="#ffe9cf" opacity="0.37"/><circle cx="770.2" cy="864.7" r="0.43" fill="#ffe9cf" opacity="0.25"/><circle cx="424.3" cy="784.1" r="0.73" fill="#cfe0ff" opacity="0.74"/><circle cx="1059.0" cy="486.7" r="0.55" fill="#cfe0ff" opacity="0.93"/><circle cx="1177.2" cy="61.0" r="0.58" fill="#cfe0ff" opacity="0.66"/><circle cx="1471.0" cy="531.1" r="0.59" fill="#ffffff" opacity="0.31"/><circle cx="109.6" cy="68.0" r="1.34" fill="#cfe0ff" opacity="0.33"/><circle cx="393.9" cy="594.5" r="0.83" fill="#cfe0ff" opacity="0.71"/><circle cx="836.5" cy="934.7" r="0.64" fill="#ffffff" opacity="0.47"/><circle cx="633.3" cy="671.7" r="0.69" fill="#ffffff" opacity="0.9"/><circle cx="14.9" cy="621.2" r="1.2" fill="#ffffff" opacity="0.3"/><circle cx="809.4" cy="132.5" r="0.81" fill="#ffffff" opacity="0.87"/><circle cx="456.0" cy="438.2" r="1.08" fill="#cfe0ff" opacity="0.68"/><circle cx="12.5" cy="817.1" r="0.82" fill="#ffffff" opacity="0.32"/><circle cx="423.1" cy="889.7" r="1.23" fill="#cfe0ff" opacity="0.44"/><circle cx="337.0" cy="342.9" r="1.26" fill="#ffe9cf" opacity="0.43"/><circle cx="401.8" cy="908.2" r="0.42" fill="#ffffff" opacity="0.55"/><circle cx="70.5" cy="333.6" r="0.63" fill="#ffe9cf" opacity="0.43"/><circle cx="882.7" cy="427.7" r="0.42" fill="#ffffff" opacity="0.91"/><circle cx="872.9" cy="834.6" r="1.02" fill="#ffffff" opacity="0.55"/><circle cx="493.2" cy="899.0" r="1.78" fill="#ffffff" opacity="0.28"/><circle cx="336.1" cy="249.5" r="0.47" fill="#ffe9cf" opacity="0.64"/><circle cx="1558.1" cy="749.5" r="0.69" fill="#ffffff" opacity="0.93"/><circle cx="1410.3" cy="24.8" r="1.4" fill="#ffe9cf" opacity="0.8"/><circle cx="1283.6" cy="864.1" r="1.35" fill="#ffffff" opacity="0.36"/><circle cx="612.1" cy="38.7" r="0.71" fill="#ffe9cf" opacity="0.82"/><circle cx="559.5" cy="820.5" r="1.34" fill="#ffffff" opacity="0.27"/><circle cx="637.5" cy="278.6" r="0.59" fill="#cfe0ff" opacity="0.45"/><circle cx="639.5" cy="981.1" r="0.93" fill="#ffffff" opacity="0.27"/><circle cx="285.7" cy="962.5" r="0.57" fill="#ffffff" opacity="0.67"/><circle cx="1165.7" cy="313.7" r="1.19" fill="#cfe0ff" opacity="0.33"/><circle cx="304.1" cy="44.4" r="0.64" fill="#cfe0ff" opacity="0.9"/><circle cx="1099.0" cy="940.3" r="1.28" fill="#ffffff" opacity="0.5"/><circle cx="1518.2" cy="920.8" r="0.93" fill="#ffffff" opacity="0.84"/><circle cx="811.4" cy="666.9" r="0.67" fill="#ffffff" opacity="0.46"/><circle cx="306.9" cy="664.9" r="0.86" fill="#cfe0ff" opacity="0.88"/><circle cx="910.6" cy="406.1" r="1.2" fill="#ffe9cf" opacity="0.45"/><circle cx="1257.2" cy="606.7" r="0.69" fill="#ffffff" opacity="0.56"/><circle cx="817.9" cy="793.7" r="1.64" fill="#ffffff" opacity="0.71"/><circle cx="824.7" cy="632.9" r="0.59" fill="#ffffff" opacity="0.92"/><circle cx="1076.5" cy="224.6" r="0.52" fill="#ffe9cf" opacity="0.28"/><circle cx="978.0" cy="768.5" r="0.77" fill="#ffffff" opacity="0.69"/><circle cx="1149.4" cy="384.0" r="0.72" fill="#ffffff" opacity="0.71"/><circle cx="1428.3" cy="860.4" r="0.56" fill="#cfe0ff" opacity="0.4"/><circle cx="743.3" cy="557.4" r="1.27" fill="#ffe9cf" opacity="0.34"/><circle cx="1068.1" cy="987.9" r="0.93" fill="#ffe9cf" opacity="0.78"/><circle cx="980.2" cy="719.3" r="0.97" fill="#ffe9cf" opacity="0.88"/><circle cx="1435.5" cy="743.7" r="0.78" fill="#ffffff" opacity="0.78"/><circle cx="1225.3" cy="521.3" r="1.07" fill="#ffffff" opacity="0.56"/><circle cx="375.2" cy="335.8" r="0.83" fill="#ffe9cf" opacity="0.36"/><circle cx="1110.3" cy="706.4" r="0.48" fill="#ffe9cf" opacity="0.48"/><circle cx="665.2" cy="206.8" r="0.76" fill="#ffffff" opacity="0.79"/><circle cx="1370.8" cy="765.6" r="0.79" fill="#ffffff" opacity="0.91"/><circle cx="1205.6" cy="853.4" r="1.45" fill="#cfe0ff" opacity="0.77"/><circle cx="1279.8" cy="897.8" r="0.71" fill="#ffffff" opacity="0.56"/><circle cx="622.2" cy="668.9" r="1.44" fill="#ffe9cf" opacity="0.37"/><circle cx="1471.3" cy="980.7" r="0.81" fill="#cfe0ff" opacity="0.53"/><circle cx="1060.8" cy="83.9" r="0.68" fill="#ffffff" opacity="0.57"/><circle cx="416.3" cy="327.4" r="0.74" fill="#ffe9cf" opacity="0.78"/><circle cx="445.2" cy="951.2" r="0.72" fill="#ffffff" opacity="0.31"/><circle cx="1198.4" cy="52.1" r="0.62" fill="#ffffff" opacity="0.3"/><circle cx="1206.8" cy="949.6" r="0.68" fill="#ffffff" opacity="0.68"/><circle cx="202.0" cy="669.5" r="1.18" fill="#ffffff" opacity="0.58"/><circle cx="1227.0" cy="167.8" r="1.19" fill="#ffffff" opacity="0.75"/><circle cx="1543.6" cy="108.1" r="0.59" fill="#ffe9cf" opacity="0.65"/><circle cx="634.6" cy="715.0" r="0.52" fill="#ffffff" opacity="0.83"/><circle cx="163.0" cy="772.5" r="1.61" fill="#cfe0ff" opacity="0.81"/><circle cx="1252.2" cy="347.2" r="0.85" fill="#ffffff" opacity="0.3"/><circle cx="20.2" cy="420.1" r="0.67" fill="#ffe9cf" opacity="0.92"/><circle cx="1131.7" cy="435.5" r="1.21" fill="#cfe0ff" opacity="0.71"/><circle cx="1293.1" cy="538.2" r="0.79" fill="#cfe0ff" opacity="0.83"/><circle cx="429.4" cy="851.7" r="1.76" fill="#ffe9cf" opacity="0.45"/><circle cx="390.2" cy="464.7" r="1.07" fill="#ffe9cf" opacity="0.49"/><circle cx="1361.5" cy="181.8" r="0.57" fill="#ffffff" opacity="0.43"/><circle cx="1408.5" cy="701.2" r="0.72" fill="#ffffff" opacity="0.61"/><circle cx="137.0" cy="720.1" r="0.82" fill="#ffe9cf" opacity="0.42"/><circle cx="1033.4" cy="490.8" r="1.21" fill="#ffe9cf" opacity="0.46"/><circle cx="1106.9" cy="306.2" r="0.95" fill="#ffffff" opacity="0.64"/><circle cx="680.8" cy="745.9" r="0.66" fill="#ffffff" opacity="0.57"/><circle cx="402.2" cy="120.7" r="0.56" fill="#ffffff" opacity="0.77"/><circle cx="306.5" cy="738.6" r="0.76" fill="#cfe0ff" opacity="0.93"/><circle cx="954.9" cy="980.5" r="1.32" fill="#ffffff" opacity="0.41"/><circle cx="483.6" cy="708.0" r="0.55" fill="#cfe0ff" opacity="0.93"/><circle cx="467.4" cy="944.1" r="1.38" fill="#ffffff" opacity="0.59"/><circle cx="918.5" cy="469.4" r="0.75" fill="#ffffff" opacity="0.93"/><circle cx="1505.7" cy="477.7" r="1.24" fill="#cfe0ff" opacity="0.59"/><circle cx="1007.1" cy="53.6" r="0.67" fill="#ffffff" opacity="0.91"/><circle cx="1590.3" cy="118.5" r="1.45" fill="#cfe0ff" opacity="0.67"/><circle cx="361.1" cy="522.6" r="0.93" fill="#cfe0ff" opacity="0.46"/><circle cx="1584.1" cy="305.4" r="0.82" fill="#ffffff" opacity="0.92"/><circle cx="1516.1" cy="207.8" r="0.54" fill="#ffffff" opacity="0.31"/><circle cx="278.1" cy="75.1" r="0.48" fill="#ffe9cf" opacity="0.73"/><circle cx="466.0" cy="231.5" r="1.1" fill="#ffffff" opacity="0.85"/><circle cx="1099.8" cy="923.9" r="1.67" fill="#ffffff" opacity="0.66"/><circle cx="680.2" cy="544.6" r="1.03" fill="#ffffff" opacity="0.44"/><circle cx="114.3" cy="165.9" r="0.73" fill="#ffffff" opacity="0.83"/><circle cx="702.6" cy="468.7" r="0.76" fill="#cfe0ff" opacity="0.91"/><circle cx="864.0" cy="437.8" r="0.82" fill="#ffffff" opacity="0.55"/><circle cx="965.9" cy="25.9" r="0.71" fill="#cfe0ff" opacity="0.84"/><circle cx="939.4" cy="20.7" r="1.6" fill="#ffffff" opacity="0.44"/><circle cx="1221.0" cy="175.2" r="1.06" fill="#ffffff" opacity="0.89"/><circle cx="1595.1" cy="435.9" r="1.5" fill="#ffffff" opacity="0.31"/><circle cx="653.4" cy="321.1" r="0.57" fill="#ffe9cf" opacity="0.48"/><circle cx="461.1" cy="945.2" r="1.66" fill="#ffffff" opacity="0.28"/><circle cx="503.2" cy="323.3" r="1.44" fill="#ffffff" opacity="0.61"/><circle cx="1052.3" cy="542.6" r="0.66" fill="#cfe0ff" opacity="0.61"/><circle cx="1210.3" cy="625.4" r="1.23" fill="#ffffff" opacity="0.44"/><circle cx="1484.3" cy="438.1" r="1.19" fill="#cfe0ff" opacity="0.27"/><circle cx="1278.9" cy="709.8" r="0.71" fill="#ffffff" opacity="0.64"/><circle cx="359.5" cy="841.4" r="0.49" fill="#ffffff" opacity="0.33"/><circle cx="797.4" cy="716.6" r="1.08" fill="#ffe9cf" opacity="0.54"/><circle cx="1568.4" cy="243.7" r="0.86" fill="#cfe0ff" opacity="0.38"/></svg>